<svg width="56" height="56" viewBox="0 0 56 56" fill="none" xmlns="http://www.w3.org/2000/svg">
<rect width="56" height="56" rx="28" fill="#FAFAFA"/>
<path d="M38.6666 40V37.3333C38.6666 35.9188 38.1047 34.5623 37.1045 33.5621C36.1044 32.5619 34.7478 32 33.3333 32H22.6666C21.2522 32 19.8956 32.5619 18.8954 33.5621C17.8952 34.5623 17.3333 35.9188 17.3333 37.3333V40" stroke="#020202" stroke-width="1.5" stroke-linecap="round" stroke-linejoin="round"/>
<path d="M28 26.6667C30.9455 26.6667 33.3334 24.2789 33.3334 21.3333C33.3334 18.3878 30.9455 16 28 16C25.0545 16 22.6667 18.3878 22.6667 21.3333C22.6667 24.2789 25.0545 26.6667 28 26.6667Z" stroke="#020202" stroke-width="1.5" stroke-linecap="round" stroke-linejoin="round"/>
</svg>
