<svg width="19" height="24" viewBox="0 0 19 24" fill="none" xmlns="http://www.w3.org/2000/svg">
<g clip-path="url(#clip0_3423_7220)">
<path d="M15.8476 12.5151C15.8801 15.971 18.9197 17.121 18.9534 17.1357C18.9277 17.2168 18.4677 18.7746 17.352 20.3837C16.3875 21.7748 15.3865 23.1609 13.8095 23.1896C12.2601 23.2177 11.7618 22.2828 9.99036 22.2828C8.21941 22.2828 7.66584 23.1609 6.1991 23.2177C4.67698 23.2746 3.51791 21.7134 2.5454 20.3274C0.558183 17.4922 -0.960461 12.3157 1.07869 8.82157C2.0917 7.08636 3.90202 5.98754 5.86697 5.95937C7.36164 5.93123 8.77244 6.95171 9.68616 6.95171C10.5993 6.95171 12.3137 5.72449 14.116 5.90473C14.8705 5.93572 16.9884 6.2055 18.3484 8.16996C18.2388 8.237 15.8213 9.62585 15.8476 12.5151V12.5151ZM12.9355 4.02899C13.7436 3.06368 14.2875 1.71988 14.1392 0.382812C12.9743 0.429012 11.5658 1.14881 10.7303 2.11358C9.98155 2.96794 9.3258 4.33539 9.50273 5.646C10.8011 5.74513 12.1274 4.99491 12.9355 4.02899" fill="#020202"/>
</g>
<defs>
<clipPath id="clip0_3423_7220">
<rect width="18.8424" height="22.88" fill="white" transform="translate(0.111023 0.382812)"/>
</clipPath>
</defs>
</svg>
