<svg width="96" height="96" viewBox="0 0 96 96" fill="none" xmlns="http://www.w3.org/2000/svg">
<path d="M54.3831 59.6526C54.4899 59.6779 54.598 59.6899 54.7033 59.6899C55.3196 59.6899 55.8799 59.2697 56.0305 58.6428C57.3421 53.175 57.9328 47.5817 58.9492 42.1616C60.2192 35.3758 64.5639 30.7176 70.5708 29.7024C72.5197 29.366 74.7108 29.8112 77.0205 29.8959C77.7596 29.932 78.4079 29.3356 78.4358 28.582C78.4639 27.827 77.8755 27.1934 77.1219 27.1667C74.8195 27.0811 72.5039 26.6037 70.1146 27.008C62.9312 28.2233 57.7527 33.7006 56.2627 41.6603C55.2572 47.0334 54.6438 52.7134 53.3734 58.0053C53.1972 58.7388 53.6495 59.4764 54.3831 59.6526Z" fill="black"/>
<path d="M4.00874 82.7182C24.4764 96.0435 54.1415 95.2272 70.4147 76.2698C82.6818 61.9803 89.7344 50.8244 91.3779 43.1128C92.5119 37.7861 91.6884 32.8192 89.0578 28.6312C89.0729 28.5847 89.0973 28.5425 89.1075 28.4939C89.9012 24.6842 88.8047 21.548 85.7565 18.9054C85.2163 18.4372 85.2109 18.4039 85.5778 17.7329C87.2252 14.7182 89.5743 12.305 92.7584 10.3575C94.4966 9.29436 94.6114 7.96433 94.5245 7.26542C94.1664 4.40083 90.6828 3.41058 88.3776 5.0084C84.6185 7.60694 81.6825 10.7779 79.6522 14.4328C79.1673 15.3044 78.9071 15.4295 77.9194 15.2932C73.9536 14.7636 70.9575 16.0055 68.5577 19.1364C68.5433 19.1552 68.537 19.1776 68.5237 19.1968C67.3366 19.3645 66.1516 19.6256 64.9812 19.9968C54.3654 23.3694 51.0297 31.3678 49.8115 40.8999C48.9978 47.2669 47.9853 55.1907 41.1594 66.1652C33.8676 77.8915 19.8524 79.6513 6.16292 77.8214C5.50023 77.7328 2.42212 77.3735 1.86357 78.5844L1.53936 79.2848C0.954484 80.5569 3.56321 82.427 4.00874 82.7182ZM82.0403 15.7587C83.8652 12.4744 86.5197 9.61305 89.9306 7.25465C90.4943 6.86716 91.7989 6.85291 91.8141 7.5988C91.802 7.64011 91.6887 7.80956 91.3338 8.02702C87.7295 10.2307 85.0629 12.9774 83.1794 16.4229C80.8735 20.6496 85.5536 20.5511 86.4863 24.8563C82.6778 21.28 78.2183 19.2603 72.9786 18.7361C76.9081 16.4461 79.6073 20.1412 82.0403 15.7587ZM43.4807 67.6084C50.6201 56.1269 51.7193 47.5256 52.5223 41.2453C53.5362 33.3025 55.8956 25.7501 65.8086 22.6005C78.1532 18.6803 91.7068 28.4549 88.7047 42.5445C87.6416 47.5349 83.2461 57.1274 68.3418 74.4903C53.1471 92.1901 25.1658 93.1669 5.62285 80.509C20.9055 81.8676 35.129 81.0359 43.4807 67.6084Z" fill="black"/>
</svg>
