<svg width="96" height="96" viewBox="0 0 96 96" fill="none" xmlns="http://www.w3.org/2000/svg">
<path d="M24.75 29.5875C24.4125 29.55 16.275 28.8 9.26251 24L11.175 21.225C17.4375 25.5 24.975 26.2125 25.05 26.25L24.75 29.5875Z" fill="#7ABD4C"/>
<path d="M24.3375 28.9125C24.2625 28.8375 16.275 21.0375 8.77499 18.3375L9.89999 15.15C18.1125 18.075 26.3625 26.175 26.7 26.5125L24.3375 28.9125ZM27.4125 26.8875C27 26.475 17.1 17.1 13.2375 7.91248L16.35 6.59998C19.95 15.1125 29.625 24.3375 29.7375 24.4125L27.4125 26.8875Z" fill="#4FA812"/>
<path d="M26.6625 27.9375C26.5875 27.8625 19.05 20.925 13.65 16.9875L15.6375 14.25C21.225 18.3 28.65 25.1625 28.9875 25.4625L26.6625 27.9375Z" fill="#7ABD4C"/>
<path d="M24.45 24.3375C24.45 24.3375 14.25 33.7875 29.175 46.4625C29.175 46.4625 76.2 88.275 85.4625 85.8375C85.4625 85.8375 93.45 86.925 75.3 63.8625C75.3 63.8625 58.65 42.3 45.4125 28.6875C45.45 28.6875 33.8625 16.1625 24.45 24.3375Z" fill="#EB5900"/>
<path d="M61.7625 47.025C57.675 52.575 53.175 58.3125 49.125 63.3C50.3625 64.3125 51.6375 65.325 52.9125 66.3375C56.7375 61.6125 61.0125 56.175 64.95 50.8875C63.9 49.6125 62.85 48.3375 61.7625 47.025Z" fill="#DE4A00"/>
<path d="M33 46.7625C32.775 46.7625 32.5125 46.6875 32.325 46.5375C21 37.8375 23.475 30.225 23.5875 29.925C23.775 29.325 24.45 29.025 25.0125 29.2125C25.6125 29.4 25.9125 30.0375 25.725 30.6375C25.65 30.9 23.8125 37.125 33.7125 44.7375C34.2 45.1125 34.3125 45.825 33.9375 46.3125C33.675 46.6125 33.3375 46.7625 33 46.7625Z" fill="#F48435"/>
<path d="M61.0125 20.8876C60.975 20.5501 60.1125 12.4125 63.4125 4.61255L66.525 5.92505C63.5625 12.9375 64.35 20.4376 64.35 20.5126L61.0125 20.8876Z" fill="#7ABD4C"/>
<path d="M64.425 22.2L61.575 20.3625C61.65 20.25 67.725 10.875 68.85 3L72.1875 3.4875C70.95 12.1125 64.6875 21.7875 64.425 22.2ZM67.05 24.75L64.1625 22.95C64.4625 22.4625 71.7375 10.9125 79.95 5.325L81.8625 8.1375C74.25 13.35 67.125 24.6375 67.05 24.75Z" fill="#4FA812"/>
<path d="M65.8875 24.1875L63 22.425C63.0375 22.35 68.3625 13.575 71.175 7.5L74.25 8.8875C71.4 15.1875 66.1125 23.85 65.8875 24.1875Z" fill="#7ABD4C"/>
<path d="M66.075 19.5751C66.075 19.5751 54.7875 11.4376 45.3375 28.6126C45.3375 28.6126 13.65 82.9875 17.925 91.6125C17.925 91.6125 18.45 99.675 37.4625 77.2876C37.4625 77.2876 55.275 56.7001 66 41.0251C66 41.0251 75.9375 27.1876 66.075 19.5751Z" fill="#F47B1E"/>
<path d="M66 19.575C66 19.575 64.3125 18.375 61.6875 17.85C64.05 25.0125 59.3625 33.375 59.3625 33.375C50.25 50.475 34.275 73.275 34.275 73.275C24.6375 87.3 19.9125 90.7125 17.5875 91.0125C17.6625 91.2375 17.7 91.425 17.8125 91.6125C17.8125 91.6125 18.3375 99.675 37.35 77.2875C37.35 77.2875 55.1625 56.7 65.8875 41.025C65.8875 41.025 75.8625 27.1875 66 19.575Z" fill="#F3690B"/>
<path d="M45.225 36.6375C45.075 36.6375 44.8875 36.6 44.7375 36.525C44.175 36.2625 43.95 35.5875 44.2125 35.025C51.6 19.4625 59.1 19.9125 59.4 19.95C60.0375 19.9875 60.4875 20.55 60.4125 21.1875C60.375 21.7875 59.8125 22.275 59.2125 22.2C59.1 22.2 52.8375 22.125 46.2375 36C46.05 36.375 45.6375 36.6375 45.225 36.6375Z" fill="#F59653"/>
</svg>
