<svg width="22" height="22" viewBox="0 0 22 22" fill="none" xmlns="http://www.w3.org/2000/svg">
<g clip-path="url(#clip0_3361_7294)">
<path d="M5.54166 13.059L4.81765 15.7619L2.17137 15.8179C1.38053 14.351 0.931946 12.6727 0.931946 10.8893C0.931946 9.16474 1.35136 7.53844 2.0948 6.10645H2.09536L4.45129 6.53837L5.48333 8.88016C5.26732 9.50989 5.14959 10.1859 5.14959 10.8893C5.14967 11.6527 5.28796 12.3842 5.54166 13.059Z" fill="#ADADAD"/>
<path d="M21.5504 8.94629C21.6698 9.57541 21.7321 10.2251 21.7321 10.8891C21.7321 11.6337 21.6538 12.36 21.5047 13.0606C20.9984 15.4446 19.6755 17.5263 17.843 18.9994L17.8424 18.9989L14.875 18.8475L14.455 16.2257C15.671 15.5126 16.6213 14.3966 17.1219 13.0606H11.5607V8.94629H17.203H21.5504Z" fill="#3A3A3C"/>
<path d="M17.8421 18.9991L17.8427 18.9996C16.0604 20.4322 13.7964 21.2893 11.3318 21.2893C7.37123 21.2893 3.92782 19.0756 2.17123 15.8179L5.54152 13.0591C6.4198 15.4031 8.68094 17.0717 11.3318 17.0717C12.4712 17.0717 13.5387 16.7636 14.4546 16.2259L17.8421 18.9991Z" fill="#6E6E6E"/>
<path d="M17.9703 2.88353L14.6011 5.64181C13.6531 5.04925 12.5325 4.70695 11.332 4.70695C8.6211 4.70695 6.31767 6.45207 5.48339 8.88011L2.09539 6.1064H2.09482C3.82569 2.76926 7.31253 0.489258 11.332 0.489258C13.8554 0.489258 16.1691 1.38813 17.9703 2.88353Z" fill="#3A3A3C"/>
</g>
<defs>
<clipPath id="clip0_3361_7294">
<rect width="20.8" height="20.8" fill="white" transform="translate(0.931946 0.489258)"/>
</clipPath>
</defs>
</svg>
