<svg width="21" height="21" viewBox="0 0 21 21" fill="none" xmlns="http://www.w3.org/2000/svg">
<g clip-path="url(#clip0_3423_7328)">
<path d="M4.60972 12.5697L3.8857 15.2726L1.23943 15.3286C0.448581 13.8617 0 12.1835 0 10.4001C0 8.67548 0.419413 7.04918 1.16285 5.61719H1.16342L3.51934 6.04911L4.55138 8.3909C4.33538 9.02063 4.21765 9.69663 4.21765 10.4001C4.21773 11.1635 4.35602 11.8949 4.60972 12.5697Z" fill="#FBBB00"/>
<path d="M20.6184 8.45703C20.7379 9.08615 20.8001 9.73587 20.8001 10.3999C20.8001 11.1445 20.7219 11.8708 20.5727 12.5713C20.0665 14.9553 18.7436 17.037 16.911 18.5102L16.9105 18.5096L13.9431 18.3582L13.5231 15.7365C14.7391 15.0233 15.6894 13.9073 16.1899 12.5713H10.6288V8.45703H16.2711H20.6184Z" fill="#518EF8"/>
<path d="M16.9101 18.5093L16.9107 18.5099C15.1284 19.9424 12.8644 20.7996 10.3998 20.7996C6.43926 20.7996 2.99584 18.5859 1.23926 15.3282L4.60955 12.5693C5.48782 14.9133 7.74897 16.5819 10.3998 16.5819C11.5392 16.5819 12.6067 16.2739 13.5227 15.7362L16.9101 18.5093Z" fill="#28B446"/>
<path d="M17.0383 2.39428L13.6691 5.15255C12.7211 4.55999 11.6005 4.21769 10.4 4.21769C7.68913 4.21769 5.38569 5.96282 4.55141 8.39085L1.16341 5.61714H1.16284C2.89371 2.28 6.38055 0 10.4 0C12.9234 0 15.2371 0.898869 17.0383 2.39428Z" fill="#F14336"/>
</g>
<defs>
<clipPath id="clip0_3423_7328">
<rect width="20.8" height="20.8" fill="white"/>
</clipPath>
</defs>
</svg>
