<svg width="84" height="84" viewBox="0 0 84 84" fill="none" xmlns="http://www.w3.org/2000/svg">
<path d="M54.8355 7.81659L55.5743 12.238C53.4985 11.4655 51.3751 10.9774 49.2734 10.7896C43.606 10.2831 38.0939 11.9387 34.0859 15.9469C32.0818 17.951 28.6414 22.3007 24.5687 27.9944C20.4961 33.6881 15.8563 40.6691 11.7119 47.7149C7.5676 54.7607 3.91705 61.8557 1.8253 67.8659C0.779438 70.8713 0.116498 73.6043 0.0132979 76.0051C-0.0898811 78.4058 0.383197 80.597 1.89265 82.1065C3.4021 83.6159 5.5933 84.089 7.99405 83.9858C10.3948 83.8827 13.1278 83.2197 16.1332 82.1738C22.144 80.0821 29.239 76.4315 36.2842 72.2872C43.3294 68.1428 50.3111 63.503 56.0047 59.4304C61.6982 55.3577 66.0481 51.9173 68.0522 49.9132C73.5475 44.4179 74.6174 36.1003 71.7611 28.4242L76.1825 29.163C80.1475 29.9568 83.9326 26.9535 83.9981 22.9742C84.0637 18.9948 80.7575 15.9512 76.9888 16.145C76.7938 16.155 76.5966 16.1819 76.3995 16.2095C76.3995 16.2095 79.7382 13.8104 79.7536 13.7994C82.9434 11.3186 83.23 6.53014 80.3488 3.64894C78.9063 2.20644 76.9602 1.53335 75.0742 1.6376C73.1883 1.74192 71.3644 2.62295 70.1661 4.29109L67.7883 7.59844C68.3513 3.59239 65.2033 -0.0658049 61.1238 -0.000104882C57.0442 0.0654796 54.0409 3.85054 54.8347 7.81549L54.8355 7.81659ZM64.81 7.2771L63.2443 16.6742C61.8537 15.5401 60.3859 14.5728 58.8699 13.7568C58.8699 13.7568 57.7854 7.2438 57.7821 7.2273C57.343 5.0343 58.9299 3.03885 61.2022 3.00345C63.4746 2.96812 65.1915 4.98825 64.81 7.2771H64.81ZM75.2802 4.6119C76.3173 4.56248 77.3994 4.94551 78.2268 5.77296C79.8855 7.43166 79.7151 10.0249 77.9101 11.4287L69.7152 17.3132L66.0795 17.9201L66.6864 14.2844L72.6032 6.04552C73.2507 5.14413 74.243 4.6612 75.2801 4.61178L75.2802 4.6119ZM47.2917 13.7069C47.8951 13.7051 48.5032 13.7322 49.1154 13.7889C54.013 14.2429 59.119 16.5653 63.2769 20.7231C71.5924 29.0387 72.57 41.1516 65.9304 47.7906C65.5001 48.221 64.8717 48.7853 64.1008 49.4414C56.2123 46.3922 50.731 39.848 50.731 39.848C50.4322 39.4834 49.9794 39.2804 49.5084 39.2997C49.1826 39.3123 48.8697 39.4307 48.6171 39.6369C47.9745 40.1621 47.8799 41.109 48.406 41.7509C48.406 41.7509 53.4967 48.0664 61.4357 51.6141C59.4511 53.1808 57.0104 55.0198 54.2582 56.9884C48.6317 61.0131 41.7091 65.6143 34.7612 69.7015C31.1123 71.8479 27.4648 73.8357 23.9891 75.5421C21.1036 73.7851 18.7849 71.5839 18.7849 71.5839C18.5143 71.3129 18.1503 71.1555 17.7675 71.1441C17.3542 71.1322 16.9543 71.2913 16.6621 71.5839C16.076 72.1701 16.076 73.1205 16.6621 73.7067C16.6621 73.7067 18.2824 75.3613 20.7199 77.0638C18.7738 77.9377 16.8846 78.7341 15.1462 79.3391C12.3084 80.3266 9.79751 80.9038 7.86611 80.9868C5.93471 81.0698 4.70531 80.673 4.01636 79.984C3.32744 79.2951 2.93062 78.0657 3.01363 76.1343C3.09663 74.2029 3.67384 71.692 4.66138 68.8542C6.63643 63.1785 10.2117 56.1877 14.2989 49.2387C16.0195 46.3135 17.8341 43.4136 19.6557 40.5923C22.1752 45.2748 25.156 48.2301 25.156 48.2301C25.7422 48.8162 26.6926 48.8162 27.2788 48.2301C27.8649 47.6439 27.8649 46.6935 27.2788 46.1073C27.2788 46.1073 23.9638 42.6825 21.5878 37.6398C23.443 34.8451 25.2831 32.1581 27.012 29.7411C31.0366 24.1146 34.5496 19.7288 36.2097 18.0688C39.1146 15.1639 43.0686 13.7181 47.2926 13.7061L47.2917 13.7069ZM77.5647 19.1427C79.485 19.2474 81.0345 20.8144 81.0508 22.8399C80.9615 25.0697 78.9661 26.6567 76.7731 26.2176C76.7566 26.2145 70.2436 25.1298 70.2436 25.1298C69.428 23.6139 68.46 22.1455 67.3263 20.7553L76.7233 19.1896C77.012 19.1277 77.3153 19.1567 77.5648 19.1428L77.5647 19.1427ZM32.6292 52.0362C32.2159 52.0243 31.816 52.1834 31.5238 52.476C30.9377 53.0622 30.9377 54.0126 31.5238 54.5988L33.6466 56.7216C34.2329 57.3077 35.1832 57.3077 35.7694 56.7216C36.3555 56.1354 36.3555 55.185 35.7694 54.5988L33.6466 52.476C33.376 52.205 33.0121 52.0476 32.6293 52.0362H32.6292Z" fill="#058B42"/>
</svg>
