<svg width="96" height="96" viewBox="0 0 96 96" fill="none" xmlns="http://www.w3.org/2000/svg">
<path d="M48 91.875C67.3023 91.875 82.95 77.4698 82.95 59.7C82.95 41.9303 67.3023 27.525 48 27.525C28.6976 27.525 13.05 41.9303 13.05 59.7C13.05 77.4698 28.6976 91.875 48 91.875Z" fill="#EE8F4F"/>
<path d="M48 52.875C58.7488 52.875 67.4625 49.3492 67.4625 45C67.4625 40.6508 58.7488 37.125 48 37.125C37.2512 37.125 28.5375 40.6508 28.5375 45C28.5375 49.3492 37.2512 52.875 48 52.875Z" fill="#EF985D"/>
<path d="M76.5375 41.175C76.5375 41.625 76.575 42.1125 76.575 42.6C76.575 63.7125 57.975 80.8501 35.0625 80.8501C29.4375 80.8501 24.075 79.8 19.2 77.9625C25.5 86.325 36.0375 91.875 48 91.875C67.3125 91.875 82.95 77.475 82.95 59.7C82.95 52.8 80.55 46.3875 76.5375 41.175Z" fill="#EC7A33"/>
<path d="M48 92.7C31.5375 92.7 18.15 78.1125 18.15 60.15C18.15 42.1875 31.5375 27.6 48 27.6C64.4625 27.6 77.85 42.1875 77.85 60.15C77.85 78.1125 64.4625 92.7 48 92.7ZM48 29.25C32.4375 29.25 19.8 43.125 19.8 60.15C19.8 77.175 32.4375 91.05 48 91.05C63.5625 91.05 76.2 77.175 76.2 60.15C76.2 43.125 63.5625 29.25 48 29.25Z" fill="#F1A36E"/>
<path d="M48 92.7C35.475 92.7 25.3125 78.1125 25.3125 60.15C25.3125 42.1875 35.5125 27.6 48 27.6C60.4875 27.6 70.6875 42.1875 70.6875 60.15C70.6875 78.1125 60.525 92.7 48 92.7ZM48 29.25C36.375 29.25 26.9625 43.125 26.9625 60.15C26.9625 77.175 36.4125 91.05 48 91.05C59.5875 91.05 69.0375 77.175 69.0375 60.15C69.0375 43.125 59.625 29.25 48 29.25Z" fill="#F1A36E"/>
<path d="M48 92.7C39.5625 92.7 32.9625 78.4125 32.9625 60.15C32.9625 41.8875 39.5625 27.6 48 27.6C56.4375 27.6 63.0375 41.8875 63.0375 60.15C63.0375 78.4125 56.4375 92.7 48 92.7ZM48 29.25C40.7625 29.25 34.6125 43.3875 34.6125 60.15C34.6125 76.9125 40.725 91.05 48 91.05C55.2375 91.05 61.3875 76.9125 61.3875 60.15C61.3875 43.425 55.2375 29.25 48 29.25Z" fill="#F1A36E"/>
<path d="M48 92.7C42.9 92.7 41.55 71.4 41.55 60.15C41.55 48.9 42.9 27.6 48 27.6C53.1 27.6 54.45 48.9 54.45 60.15C54.45 71.4 53.1 92.7 48 92.7ZM48 29.25C46.3125 29.25 43.2 39.8625 43.2 60.15C43.2 80.4375 46.3125 91.05 48 91.05C49.6875 91.05 52.8 80.4375 52.8 60.15C52.8 39.8625 49.6875 29.25 48 29.25Z" fill="#F1A36E"/>
<path d="M48 33.675C53.3019 33.675 57.6 32.6844 57.6 31.4625C57.6 30.2406 53.3019 29.25 48 29.25C42.6981 29.25 38.4 30.2406 38.4 31.4625C38.4 32.6844 42.6981 33.675 48 33.675Z" fill="#B56425"/>
<path d="M48 93C51.5415 93 54.4125 92.3452 54.4125 91.5375C54.4125 90.7297 51.5415 90.075 48 90.075C44.4585 90.075 41.5875 90.7297 41.5875 91.5375C41.5875 92.3452 44.4585 93 48 93Z" fill="#B56425"/>
<path d="M43.0875 31.6875C42.8625 31.35 37.7625 23.5875 36.225 13.3125L40.0125 12.75C41.4 22.125 46.2375 29.475 46.275 29.55L43.0875 31.6875Z" fill="#7ABD4C"/>
<path d="M43.35 31.0125C43.35 30.8625 43.2375 16.875 39.825 7.8L43.425 6.45C47.0625 16.1625 47.2125 30.375 47.2125 30.975L43.35 31.0125ZM50.1 31.9125C50.1 31.2 49.7625 14.3625 53.4375 3L57.075 4.2C53.5875 14.9625 53.8875 31.6875 53.925 31.8375L50.1 31.9125Z" fill="#4FA812"/>
<path d="M46.725 32.175C46.725 32.0625 46.3125 19.275 45.2625 11.025L49.0875 10.5375C50.1375 18.975 50.55 31.5375 50.55 32.0625L46.725 32.175Z" fill="#7ABD4C"/>
</svg>
