<svg width="124" height="124" viewBox="0 0 124 124" fill="none" xmlns="http://www.w3.org/2000/svg">
<g clip-path="url(#clip0_3401_5486)">
<path d="M92.0958 27.9578C93.228 24.8469 91.6202 21.3964 88.5108 20.2647C85.4027 19.1334 81.9556 20.7409 80.8201 23.8474C80.8196 23.8488 80.8196 23.8488 80.8196 23.8488L74.5966 40.9465C74.3128 41.726 74.7136 42.5854 75.4931 42.8691C76.2725 43.1528 77.1319 42.752 77.4156 41.9726L77.4649 41.8372C77.7059 41.9074 77.9446 41.9751 78.1829 42.0618C78.4197 42.148 78.647 42.2515 78.8758 42.3508L78.8338 42.4664C78.5501 43.2458 78.9508 44.1052 79.7303 44.3889C80.5097 44.6726 81.3691 44.2719 81.6528 43.4924L85.8879 31.8567C88.543 32.1095 91.1426 30.5767 92.0958 27.9578Z" fill="#A0D468"/>
<path d="M89.349 31.1275L90.6901 27.443C90.9738 26.6635 90.573 25.8041 89.7936 25.5204C89.0141 25.2367 88.1547 25.6374 87.871 26.4169L85.8912 31.8563C87.1085 31.9722 88.3071 31.6965 89.349 31.1275Z" fill="#8CC152"/>
<path d="M87.2199 58.897C89.9071 51.5138 86.0862 43.3198 78.703 40.6326C71.3199 37.9453 63.1259 41.7662 60.4386 49.1494C60.434 49.1621 60.4375 49.1745 60.4329 49.1872C60.4293 49.1971 60.4205 49.2035 60.417 49.2133L46.8417 86.5111C43.7445 95.0205 34.3318 99.4355 25.8149 96.4074C25.7754 96.393 25.7335 96.381 25.694 96.3666C24.9146 96.0829 24.0552 96.4836 23.7715 97.2631C23.5586 97.8481 23.7311 98.4791 24.1611 98.8767C24.3041 99.0101 24.4753 99.1187 24.6726 99.1905C24.7107 99.2044 24.7508 99.2126 24.7888 99.2265C48.0746 107.627 73.871 95.5684 82.3426 72.2927L87.2159 58.9035C87.2169 58.9007 87.2188 58.8998 87.2199 58.897Z" fill="#ED5565"/>
<path d="M78.7031 40.6326C77.9814 40.3699 77.2514 40.1872 76.5187 40.0467C82.5274 43.3878 85.4117 50.6949 82.9871 57.3564C82.986 57.3592 82.9841 57.3601 82.9831 57.3629L78.1098 70.7521C70.0645 92.8565 46.3948 104.83 24.0886 98.7865C24.1135 98.8147 24.1324 98.8503 24.1611 98.8767C24.3041 99.0102 24.4753 99.1188 24.6726 99.1906C24.7107 99.2044 24.7508 99.2126 24.7889 99.2265C48.0746 107.627 73.871 95.5685 82.3427 72.2928L87.2159 58.9035C87.217 58.9007 87.2189 58.8998 87.2199 58.897C89.9072 51.5138 86.0862 43.3199 78.7031 40.6326Z" fill="#DA4453"/>
</g>
<defs>
<clipPath id="clip0_3401_5486">
<rect width="96" height="96" fill="white" transform="translate(32.834) rotate(20)"/>
</clipPath>
</defs>
</svg>
